<?xml version="1.0" ?><svg viewBox="0 0 64 64" xmlns="http://www.w3.org/2000/svg"><defs><style>.cls-1{fill:#aa7b50;}.cls-2{fill:#bb9573;}.cls-3{fill:#fddead;}.cls-4{fill:#fdd598;}.cls-5{fill:#926945;}</style></defs><title/><g data-name="Layer 25" id="Layer_25"><path class="cls-1" d="M38.986,39.543l5.822-16.225-4.125-4.124L24.454,25.015a19.337,19.337,0,0,1-5.787,1.116A18.446,18.446,0,1,0,32.5,57.617a18.312,18.312,0,0,0,5.368-12.28A19.416,19.416,0,0,1,38.986,39.543Z"/><path class="cls-2" d="M40.683,19.194l-2.208.792,3.333,3.332L35.986,39.543a19.416,19.416,0,0,0-1.118,5.794A18.333,18.333,0,0,1,17.981,62.919,18.35,18.35,0,0,0,37.868,45.337a19.416,19.416,0,0,1,1.118-5.794l5.822-16.225Z"/><path class="cls-3" d="M62.158,4.538a2.85,2.85,0,0,0-1.869-.827,2.844,2.844,0,1,0-4.841,2.145L41.4,19.906l2.7,2.7L58.144,8.552a2.838,2.838,0,1,0,4.014-4.014Z"/><path class="cls-4" d="M55.581,8.552,42.813,21.32,44.1,22.6,57.329,9.367A2.842,2.842,0,0,1,55.581,8.552Z"/><path class="cls-4" d="M62.158,4.538a2.85,2.85,0,0,0-1.869-.827,2.843,2.843,0,0,0-4.134-2.392,2.812,2.812,0,0,1,.744.523,2.85,2.85,0,0,1,.827,1.869A2.853,2.853,0,0,1,59.61,8.567a2.773,2.773,0,0,1-.722.508,2.828,2.828,0,0,0,3.27-4.537Z"/><path d="M62.865,3.831a3.838,3.838,0,0,0-1.708-.988,3.841,3.841,0,1,0-7.031,2.921L41.4,18.494l-.007-.007a1,1,0,0,0-1.045-.235L24.117,24.073a18.308,18.308,0,0,1-5.489,1.059,19.442,19.442,0,0,0-.215,38.838c.358.02.714.03,1.07.03A19.379,19.379,0,0,0,38.868,45.376a18.356,18.356,0,0,1,1.059-5.495l5.822-16.225a1,1,0,0,0-.234-1.045l-.008-.007L58.235,9.875a3.843,3.843,0,0,0,1.923.519h.014a3.8,3.8,0,0,0,2.708-1.12A3.853,3.853,0,0,0,62.865,3.831ZM38.044,39.206A20.349,20.349,0,0,0,36.87,45.3,17.472,17.472,0,1,1,18.706,27.13a20.307,20.307,0,0,0,6.086-1.174l15.632-5.607,3.228,3.228ZM61.466,7.86a1.827,1.827,0,0,1-1.3.534,1.856,1.856,0,0,1-1.314-.549,1.029,1.029,0,0,0-1.414,0L44.1,21.188l-1.282-1.282L56.155,6.563a1,1,0,0,0,0-1.414,1.861,1.861,0,0,1-.549-1.315,1.815,1.815,0,0,1,.534-1.3,1.853,1.853,0,0,1,3.151,1.232,1,1,0,0,0,.943.943A1.853,1.853,0,0,1,61.466,7.86Z"/><path class="cls-5" d="M18,58a1,1,0,0,1-1-1V55a1,1,0,0,1,2,0v2A1,1,0,0,1,18,58Z"/><path class="cls-5" d="M22,58a1,1,0,0,1-1-1V55a1,1,0,0,1,2,0v2A1,1,0,0,1,22,58Z"/><path class="cls-5" d="M26,58a1,1,0,0,1-1-1V55a1,1,0,0,1,2,0v2A1,1,0,0,1,26,58Z"/></g></svg>