{
	"asset":{
		"generator":"Khronos glTF Blender I/O v3.6.28",
		"version":"2.0"
	},
	"scene":0,
	"scenes":[
		{
			"name":"Scene",
			"nodes":[
				11
			]
		}
	],
	"nodes":[
		{
			"mesh":0,
			"name":"Body",
			"scale":[
				1.4603195190429688,
				1,
				0.7070338129997253
			]
		},
		{
			"mesh":1,
			"name":"L-eye",
			"rotation":[
				-0.08805649727582932,
				0,
				0,
				0.996115505695343
			],
			"scale":[
				0.22669535875320435,
				0.32071566581726074,
				0.18282413482666016
			],
			"translation":[
				-0.924653947353363,
				-0.274058997631073,
				-0.43075427412986755
			]
		},
		{
			"mesh":2,
			"name":"R-eye",
			"rotation":[
				0.08805634826421738,
				0,
				0,
				0.9961155652999878
			],
			"scale":[
				0.22669535875320435,
				0.32071569561958313,
				0.18282414972782135
			],
			"translation":[
				-0.924653947353363,
				-0.274058997631073,
				0.43075400590896606
			]
		},
		{
			"children":[
				0,
				1,
				2
			],
			"name":"body"
		},
		{
			"mesh":3,
			"name":"L-fin",
			"rotation":[
				-0.10929540544748306,
				0,
				0,
				0.9940093159675598
			],
			"scale":[
				0.26935267448425293,
				0.7249064445495605,
				0.053174328058958054
			],
			"translation":[
				0.24267999827861786,
				0.6505461931228638,
				-0.7687370181083679
			]
		},
		{
			"mesh":4,
			"name":"M-fin",
			"rotation":[
				0,
				0,
				0.4277874231338501,
				0.9038793444633484
			],
			"scale":[
				0.6592333316802979,
				0.9152512550354004,
				0.08992007374763489
			],
			"translation":[
				0.2420210838317871,
				-0.4494599997997284,
				0
			]
		},
		{
			"mesh":5,
			"name":"R-fin",
			"rotation":[
				0.10929527133703232,
				0,
				0,
				0.9940093159675598
			],
			"scale":[
				0.26935267448425293,
				0.7249065041542053,
				0.05317433178424835
			],
			"translation":[
				0.24267999827861786,
				0.6505461931228638,
				0.7687373757362366
			]
		},
		{
			"mesh":6,
			"name":"tail",
			"rotation":[
				0,
				0.006900222506374121,
				-0.9999762177467346,
				0
			],
			"scale":[
				-0.757728636264801,
				-0.7420133948326111,
				-0.027741430327296257
			],
			"translation":[
				1.417353630065918,
				0.7072585225105286,
				0.19518114626407623
			]
		},
		{
			"children":[
				4,
				5,
				6,
				7
			],
			"name":"fin"
		},
		{
			"children":[
				3,
				8
			],
			"name":"goldfish",
			"rotation":[
				0,
				1,
				0,
				7.549790126404332e-08
			]
		},
		{
			"name":"world"
		},
		{
			"children":[
				9,
				10
			],
			"name":"scene"
		}
	],
	"materials":[
		{
			"doubleSided":true,
			"name":"goldfishMaterial",
			"pbrMetallicRoughness":{
				"baseColorTexture":{
					"index":0
				},
				"metallicFactor":0,
				"roughnessFactor":0.5
			}
		}
	],
	"meshes":[
		{
			"name":"Sphere",
			"primitives":[
				{
					"attributes":{
						"POSITION":0,
						"NORMAL":1,
						"TEXCOORD_0":2
					},
					"indices":3,
					"material":0
				}
			]
		},
		{
			"name":"Sphere.012",
			"primitives":[
				{
					"attributes":{
						"POSITION":4,
						"NORMAL":5,
						"TEXCOORD_0":6
					},
					"indices":7,
					"material":0
				}
			]
		},
		{
			"name":"Sphere.013",
			"primitives":[
				{
					"attributes":{
						"POSITION":8,
						"NORMAL":9,
						"TEXCOORD_0":10
					},
					"indices":11,
					"material":0
				}
			]
		},
		{
			"name":"Sphere.006",
			"primitives":[
				{
					"attributes":{
						"POSITION":12,
						"NORMAL":13,
						"TEXCOORD_0":14
					},
					"indices":15,
					"material":0
				}
			]
		},
		{
			"name":"Sphere.008",
			"primitives":[
				{
					"attributes":{
						"POSITION":16,
						"NORMAL":17,
						"TEXCOORD_0":18
					},
					"indices":19,
					"material":0
				}
			]
		},
		{
			"name":"Sphere.003",
			"primitives":[
				{
					"attributes":{
						"POSITION":20,
						"NORMAL":21,
						"TEXCOORD_0":22
					},
					"indices":15,
					"material":0
				}
			]
		},
		{
			"name":"Sphere.011",
			"primitives":[
				{
					"attributes":{
						"POSITION":23,
						"NORMAL":24,
						"TEXCOORD_0":25
					},
					"indices":26,
					"material":0
				}
			]
		}
	],
	"textures":[
		{
			"sampler":0,
			"source":0
		}
	],
	"images":[
		{
			"bufferView":4,
			"mimeType":"image/png",
			"name":"goldFish"
		}
	],
	"accessors":[
		{
			"bufferView":0,
			"componentType":5126,
			"count":604,
			"max":[
				0.9999996423721313,
				0.9948543310165405,
				1.0293208360671997
			],
			"min":[
				-0.999998927116394,
				-1.0049951076507568,
				-0.9705284237861633
			],
			"type":"VEC3"
		},
		{
			"bufferView":1,
			"componentType":5126,
			"count":604,
			"type":"VEC3"
		},
		{
			"bufferView":2,
			"componentType":5126,
			"count":604,
			"type":"VEC2"
		},
		{
			"bufferView":3,
			"componentType":5123,
			"count":2880,
			"type":"SCALAR"
		},
		{
			"bufferView":5,
			"componentType":5126,
			"count":592,
			"max":[
				1,
				2.2023167610168457,
				6.2588396072387695
			],
			"min":[
				-0.9999985694885254,
				0.20246750116348267,
				4.258991718292236
			],
			"type":"VEC3"
		},
		{
			"bufferView":6,
			"componentType":5126,
			"count":592,
			"type":"VEC3"
		},
		{
			"bufferView":7,
			"componentType":5126,
			"count":592,
			"type":"VEC2"
		},
		{
			"bufferView":8,
			"componentType":5123,
			"count":2880,
			"type":"SCALAR"
		},
		{
			"bufferView":9,
			"componentType":5126,
			"count":592,
			"max":[
				1,
				2.1889233589172363,
				-4.061226844787598
			],
			"min":[
				-0.9999985694885254,
				0.189073383808136,
				-6.0610761642456055
			],
			"type":"VEC3"
		},
		{
			"bufferView":10,
			"componentType":5126,
			"count":592,
			"type":"VEC3"
		},
		{
			"bufferView":11,
			"componentType":5126,
			"count":592,
			"type":"VEC2"
		},
		{
			"bufferView":12,
			"componentType":5123,
			"count":2880,
			"type":"SCALAR"
		},
		{
			"bufferView":13,
			"componentType":5126,
			"count":1984,
			"max":[
				0.9999996423721313,
				-1.2155382633209229,
				24.464914321899414
			],
			"min":[
				-0.999998927116394,
				-3.2153866291046143,
				22.438217163085938
			],
			"type":"VEC3"
		},
		{
			"bufferView":14,
			"componentType":5126,
			"count":1984,
			"type":"VEC3"
		},
		{
			"bufferView":15,
			"componentType":5126,
			"count":1984,
			"type":"VEC2"
		},
		{
			"bufferView":16,
			"componentType":5123,
			"count":2880,
			"type":"SCALAR"
		},
		{
			"bufferView":17,
			"componentType":5126,
			"count":1224,
			"max":[
				2.9872143268585205,
				1.8717286586761475,
				1.1697214841842651
			],
			"min":[
				-0.3249179720878601,
				-0.11180904507637024,
				-0.9107686281204224
			],
			"type":"VEC3"
		},
		{
			"bufferView":18,
			"componentType":5126,
			"count":1224,
			"type":"VEC3"
		},
		{
			"bufferView":19,
			"componentType":5126,
			"count":1224,
			"type":"VEC2"
		},
		{
			"bufferView":20,
			"componentType":5123,
			"count":5760,
			"type":"SCALAR"
		},
		{
			"bufferView":21,
			"componentType":5126,
			"count":1984,
			"max":[
				0.9999996423721313,
				-1.2236982583999634,
				-21.305004119873047
			],
			"min":[
				-0.9999988675117493,
				-3.22354793548584,
				-23.33169937133789
			],
			"type":"VEC3"
		},
		{
			"bufferView":22,
			"componentType":5126,
			"count":1984,
			"type":"VEC3"
		},
		{
			"bufferView":23,
			"componentType":5126,
			"count":1984,
			"type":"VEC2"
		},
		{
			"bufferView":24,
			"componentType":5126,
			"count":1218,
			"max":[
				2.914201021194458,
				0.051437437534332275,
				7.066082954406738
			],
			"min":[
				-1.2787854671478271,
				-2.901500940322876,
				4.65438175201416
			],
			"type":"VEC3"
		},
		{
			"bufferView":25,
			"componentType":5126,
			"count":1218,
			"type":"VEC3"
		},
		{
			"bufferView":26,
			"componentType":5126,
			"count":1218,
			"type":"VEC2"
		},
		{
			"bufferView":27,
			"componentType":5123,
			"count":5760,
			"type":"SCALAR"
		}
	],
	"bufferViews":[
		{
			"buffer":0,
			"byteLength":7248,
			"byteOffset":0,
			"target":34962
		},
		{
			"buffer":0,
			"byteLength":7248,
			"byteOffset":7248,
			"target":34962
		},
		{
			"buffer":0,
			"byteLength":4832,
			"byteOffset":14496,
			"target":34962
		},
		{
			"buffer":0,
			"byteLength":5760,
			"byteOffset":19328,
			"target":34963
		},
		{
			"buffer":0,
			"byteLength":160470,
			"byteOffset":25088
		},
		{
			"buffer":0,
			"byteLength":7104,
			"byteOffset":185560,
			"target":34962
		},
		{
			"buffer":0,
			"byteLength":7104,
			"byteOffset":192664,
			"target":34962
		},
		{
			"buffer":0,
			"byteLength":4736,
			"byteOffset":199768,
			"target":34962
		},
		{
			"buffer":0,
			"byteLength":5760,
			"byteOffset":204504,
			"target":34963
		},
		{
			"buffer":0,
			"byteLength":7104,
			"byteOffset":210264,
			"target":34962
		},
		{
			"buffer":0,
			"byteLength":7104,
			"byteOffset":217368,
			"target":34962
		},
		{
			"buffer":0,
			"byteLength":4736,
			"byteOffset":224472,
			"target":34962
		},
		{
			"buffer":0,
			"byteLength":5760,
			"byteOffset":229208,
			"target":34963
		},
		{
			"buffer":0,
			"byteLength":23808,
			"byteOffset":234968,
			"target":34962
		},
		{
			"buffer":0,
			"byteLength":23808,
			"byteOffset":258776,
			"target":34962
		},
		{
			"buffer":0,
			"byteLength":15872,
			"byteOffset":282584,
			"target":34962
		},
		{
			"buffer":0,
			"byteLength":5760,
			"byteOffset":298456,
			"target":34963
		},
		{
			"buffer":0,
			"byteLength":14688,
			"byteOffset":304216,
			"target":34962
		},
		{
			"buffer":0,
			"byteLength":14688,
			"byteOffset":318904,
			"target":34962
		},
		{
			"buffer":0,
			"byteLength":9792,
			"byteOffset":333592,
			"target":34962
		},
		{
			"buffer":0,
			"byteLength":11520,
			"byteOffset":343384,
			"target":34963
		},
		{
			"buffer":0,
			"byteLength":23808,
			"byteOffset":354904,
			"target":34962
		},
		{
			"buffer":0,
			"byteLength":23808,
			"byteOffset":378712,
			"target":34962
		},
		{
			"buffer":0,
			"byteLength":15872,
			"byteOffset":402520,
			"target":34962
		},
		{
			"buffer":0,
			"byteLength":14616,
			"byteOffset":418392,
			"target":34962
		},
		{
			"buffer":0,
			"byteLength":14616,
			"byteOffset":433008,
			"target":34962
		},
		{
			"buffer":0,
			"byteLength":9744,
			"byteOffset":447624,
			"target":34962
		},
		{
			"buffer":0,
			"byteLength":11520,
			"byteOffset":457368,
			"target":34963
		}
	],
	"samplers":[
		{
			"magFilter":9729,
			"minFilter":9987
		}
	],
	"buffers":[
		{
			"byteLength":468888,
			"uri":"data:application/octet-stream;base64,"
		}
	]
}
