{
	"asset":{
		"generator":"Khronos glTF Blender I/O v3.6.28",
		"version":"2.0"
	},
	"scene":0,
	"scenes":[
		{
			"name":"Scene",
			"nodes":[
				9
			]
		}
	],
	"nodes":[
		{
			"mesh":0,
			"name":"body",
			"scale":[
				1,
				0.8702876567840576,
				0.8191863894462585
			],
			"translation":[
				0,
				0.5818061232566833,
				0
			]
		},
		{
			"mesh":1,
			"name":"L-eye",
			"rotation":[
				0.9357849359512329,
				0.059094157069921494,
				-0.33019429445266724,
				0.10856421291828156
			],
			"scale":[
				-0.0819477066397667,
				-0.09963202476501465,
				-0.13865235447883606
			],
			"translation":[
				0.814145565032959,
				0.8261001110076904,
				-0.3793365955352783
			]
		},
		{
			"mesh":2,
			"name":"L-fim",
			"rotation":[
				-0.11712700128555298,
				-0.7012255787849426,
				0.3969421982765198,
				0.5805177092552185
			],
			"scale":[
				-0.36689266562461853,
				-0.13437336683273315,
				-0.3796486556529999
			],
			"translation":[
				-0.17520348727703094,
				0.734697699546814,
				-0.8395435810089111
			]
		},
		{
			"mesh":3,
			"name":"M-fin",
			"rotation":[
				0.7703923583030701,
				0.6375702619552612,
				0,
				0
			],
			"scale":[
				-0.42008888721466064,
				-0.6167348623275757,
				-0.15667004883289337
			],
			"translation":[
				-0.18136301636695862,
				1.2827606201171875,
				0
			]
		},
		{
			"mesh":4,
			"name":"R-eye",
			"rotation":[
				-0.9377979040145874,
				-0.06484158337116241,
				-0.3348604440689087,
				0.06480119377374649
			],
			"scale":[
				-0.0819477066397667,
				-0.09963202476501465,
				-0.13865235447883606
			],
			"translation":[
				0.814145565032959,
				0.8261001110076904,
				0.36886122822761536
			]
		},
		{
			"mesh":5,
			"name":"R-fin",
			"rotation":[
				-0.11712700128555298,
				-0.7012255787849426,
				0.3969421982765198,
				0.5805177092552185
			],
			"scale":[
				-0.34921735525131226,
				-0.12659025192260742,
				-0.37401628494262695
			],
			"translation":[
				-0.17520348727703094,
				0.734697699546814,
				0.7751517295837402
			]
		},
		{
			"mesh":6,
			"name":"tail",
			"rotation":[
				0.9973687529563904,
				0.07249535620212555,
				0,
				0
			],
			"scale":[
				-0.46951723098754883,
				-0.5490856766700745,
				-0.07282824069261551
			],
			"translation":[
				-1.0578546524047852,
				0.4193640947341919,
				0
			]
		},
		{
			"children":[
				0,
				1,
				2,
				3,
				4,
				5,
				6
			],
			"name":"Neemo"
		},
		{
			"name":"world"
		},
		{
			"children":[
				7,
				8
			],
			"name":"scene"
		}
	],
	"materials":[
		{
			"doubleSided":true,
			"name":"Body only",
			"pbrMetallicRoughness":{
				"baseColorTexture":{
					"index":0
				},
				"metallicFactor":0,
				"roughnessFactor":0.5
			}
		},
		{
			"doubleSided":true,
			"name":"bodyM",
			"pbrMetallicRoughness":{
				"baseColorTexture":{
					"index":1
				},
				"metallicFactor":0,
				"roughnessFactor":0.5
			}
		}
	],
	"meshes":[
		{
			"name":"Sphere.002",
			"primitives":[
				{
					"attributes":{
						"POSITION":0,
						"NORMAL":1,
						"TEXCOORD_0":2
					},
					"indices":3,
					"material":0
				}
			]
		},
		{
			"name":"Sphere.007",
			"primitives":[
				{
					"attributes":{
						"POSITION":4,
						"NORMAL":5,
						"TEXCOORD_0":6
					},
					"indices":7,
					"material":1
				}
			]
		},
		{
			"name":"Sphere.005",
			"primitives":[
				{
					"attributes":{
						"COLOR_0":8,
						"POSITION":9,
						"NORMAL":10,
						"TEXCOORD_0":11
					},
					"indices":12,
					"material":1
				}
			]
		},
		{
			"name":"Sphere.001",
			"primitives":[
				{
					"attributes":{
						"COLOR_0":13,
						"POSITION":14,
						"NORMAL":15,
						"TEXCOORD_0":16
					},
					"indices":17,
					"material":1
				}
			]
		},
		{
			"name":"Sphere.006",
			"primitives":[
				{
					"attributes":{
						"POSITION":18,
						"NORMAL":19,
						"TEXCOORD_0":20
					},
					"indices":21,
					"material":1
				}
			]
		},
		{
			"name":"Sphere.004",
			"primitives":[
				{
					"attributes":{
						"COLOR_0":22,
						"POSITION":23,
						"NORMAL":24,
						"TEXCOORD_0":25
					},
					"indices":12,
					"material":1
				}
			]
		},
		{
			"name":"Sphere.003",
			"primitives":[
				{
					"attributes":{
						"COLOR_0":26,
						"POSITION":27,
						"NORMAL":28,
						"TEXCOORD_0":29
					},
					"indices":30,
					"material":1
				}
			]
		}
	],
	"textures":[
		{
			"sampler":0,
			"source":0
		},
		{
			"sampler":0,
			"source":1
		}
	],
	"images":[
		{
			"bufferView":4,
			"mimeType":"image/png",
			"name":"Bodycc"
		},
		{
			"bufferView":9,
			"mimeType":"image/png",
			"name":"body1"
		}
	],
	"accessors":[
		{
			"bufferView":0,
			"componentType":5126,
			"count":596,
			"max":[
				0.9999997019767761,
				1,
				0.9999993443489075
			],
			"min":[
				-0.9999990463256836,
				-1,
				-1
			],
			"type":"VEC3"
		},
		{
			"bufferView":1,
			"componentType":5126,
			"count":596,
			"type":"VEC3"
		},
		{
			"bufferView":2,
			"componentType":5126,
			"count":596,
			"type":"VEC2"
		},
		{
			"bufferView":3,
			"componentType":5123,
			"count":2880,
			"type":"SCALAR"
		},
		{
			"bufferView":5,
			"componentType":5126,
			"count":384,
			"max":[
				1.0000001192092896,
				1,
				1.000000238418579
			],
			"min":[
				-1.0000004768371582,
				-1,
				-1.0000007152557373
			],
			"type":"VEC3"
		},
		{
			"bufferView":6,
			"componentType":5126,
			"count":384,
			"type":"VEC3"
		},
		{
			"bufferView":7,
			"componentType":5126,
			"count":384,
			"type":"VEC2"
		},
		{
			"bufferView":8,
			"componentType":5123,
			"count":1800,
			"type":"SCALAR"
		},
		{
			"bufferView":10,
			"componentType":5123,
			"count":358,
			"normalized":true,
			"type":"VEC4"
		},
		{
			"bufferView":11,
			"componentType":5126,
			"count":358,
			"max":[
				0.8394119143486023,
				2.421398878097534,
				0.8045276999473572
			],
			"min":[
				-0.8394134640693665,
				-2.4213979244232178,
				-0.804526686668396
			],
			"type":"VEC3"
		},
		{
			"bufferView":12,
			"componentType":5126,
			"count":358,
			"type":"VEC3"
		},
		{
			"bufferView":13,
			"componentType":5126,
			"count":358,
			"type":"VEC2"
		},
		{
			"bufferView":14,
			"componentType":5123,
			"count":1800,
			"type":"SCALAR"
		},
		{
			"bufferView":15,
			"componentType":5123,
			"count":596,
			"normalized":true,
			"type":"VEC4"
		},
		{
			"bufferView":16,
			"componentType":5126,
			"count":596,
			"max":[
				0.9999997019767761,
				1,
				0.9999993443489075
			],
			"min":[
				-0.9999990463256836,
				-1,
				-1
			],
			"type":"VEC3"
		},
		{
			"bufferView":17,
			"componentType":5126,
			"count":596,
			"type":"VEC3"
		},
		{
			"bufferView":18,
			"componentType":5126,
			"count":596,
			"type":"VEC2"
		},
		{
			"bufferView":19,
			"componentType":5123,
			"count":2880,
			"type":"SCALAR"
		},
		{
			"bufferView":20,
			"componentType":5126,
			"count":384,
			"max":[
				1.0000001192092896,
				1,
				1.000000238418579
			],
			"min":[
				-1.0000004768371582,
				-1,
				-1.0000007152557373
			],
			"type":"VEC3"
		},
		{
			"bufferView":21,
			"componentType":5126,
			"count":384,
			"type":"VEC3"
		},
		{
			"bufferView":22,
			"componentType":5126,
			"count":384,
			"type":"VEC2"
		},
		{
			"bufferView":23,
			"componentType":5123,
			"count":1800,
			"type":"SCALAR"
		},
		{
			"bufferView":24,
			"componentType":5123,
			"count":358,
			"normalized":true,
			"type":"VEC4"
		},
		{
			"bufferView":25,
			"componentType":5126,
			"count":358,
			"max":[
				0.8394119143486023,
				2.421398878097534,
				0.8045276999473572
			],
			"min":[
				-0.8394134640693665,
				-2.4213979244232178,
				-0.804526686668396
			],
			"type":"VEC3"
		},
		{
			"bufferView":26,
			"componentType":5126,
			"count":358,
			"type":"VEC3"
		},
		{
			"bufferView":27,
			"componentType":5126,
			"count":358,
			"type":"VEC2"
		},
		{
			"bufferView":28,
			"componentType":5123,
			"count":627,
			"normalized":true,
			"type":"VEC4"
		},
		{
			"bufferView":29,
			"componentType":5126,
			"count":627,
			"max":[
				0.8118681907653809,
				0.9246661067008972,
				1.718456506729126
			],
			"min":[
				-1.1304619312286377,
				-1.0073320865631104,
				0.1674625277519226
			],
			"type":"VEC3"
		},
		{
			"bufferView":30,
			"componentType":5126,
			"count":627,
			"type":"VEC3"
		},
		{
			"bufferView":31,
			"componentType":5126,
			"count":627,
			"type":"VEC2"
		},
		{
			"bufferView":32,
			"componentType":5123,
			"count":2880,
			"type":"SCALAR"
		}
	],
	"bufferViews":[
		{
			"buffer":0,
			"byteLength":7152,
			"byteOffset":0,
			"target":34962
		},
		{
			"buffer":0,
			"byteLength":7152,
			"byteOffset":7152,
			"target":34962
		},
		{
			"buffer":0,
			"byteLength":4768,
			"byteOffset":14304,
			"target":34962
		},
		{
			"buffer":0,
			"byteLength":5760,
			"byteOffset":19072,
			"target":34963
		},
		{
			"buffer":0,
			"byteLength":243834,
			"byteOffset":24832
		},
		{
			"buffer":0,
			"byteLength":4608,
			"byteOffset":268668,
			"target":34962
		},
		{
			"buffer":0,
			"byteLength":4608,
			"byteOffset":273276,
			"target":34962
		},
		{
			"buffer":0,
			"byteLength":3072,
			"byteOffset":277884,
			"target":34962
		},
		{
			"buffer":0,
			"byteLength":3600,
			"byteOffset":280956,
			"target":34963
		},
		{
			"buffer":0,
			"byteLength":207963,
			"byteOffset":284556
		},
		{
			"buffer":0,
			"byteLength":2864,
			"byteOffset":492520,
			"target":34962
		},
		{
			"buffer":0,
			"byteLength":4296,
			"byteOffset":495384,
			"target":34962
		},
		{
			"buffer":0,
			"byteLength":4296,
			"byteOffset":499680,
			"target":34962
		},
		{
			"buffer":0,
			"byteLength":2864,
			"byteOffset":503976,
			"target":34962
		},
		{
			"buffer":0,
			"byteLength":3600,
			"byteOffset":506840,
			"target":34963
		},
		{
			"buffer":0,
			"byteLength":4768,
			"byteOffset":510440,
			"target":34962
		},
		{
			"buffer":0,
			"byteLength":7152,
			"byteOffset":515208,
			"target":34962
		},
		{
			"buffer":0,
			"byteLength":7152,
			"byteOffset":522360,
			"target":34962
		},
		{
			"buffer":0,
			"byteLength":4768,
			"byteOffset":529512,
			"target":34962
		},
		{
			"buffer":0,
			"byteLength":5760,
			"byteOffset":534280,
			"target":34963
		},
		{
			"buffer":0,
			"byteLength":4608,
			"byteOffset":540040,
			"target":34962
		},
		{
			"buffer":0,
			"byteLength":4608,
			"byteOffset":544648,
			"target":34962
		},
		{
			"buffer":0,
			"byteLength":3072,
			"byteOffset":549256,
			"target":34962
		},
		{
			"buffer":0,
			"byteLength":3600,
			"byteOffset":552328,
			"target":34963
		},
		{
			"buffer":0,
			"byteLength":2864,
			"byteOffset":555928,
			"target":34962
		},
		{
			"buffer":0,
			"byteLength":4296,
			"byteOffset":558792,
			"target":34962
		},
		{
			"buffer":0,
			"byteLength":4296,
			"byteOffset":563088,
			"target":34962
		},
		{
			"buffer":0,
			"byteLength":2864,
			"byteOffset":567384,
			"target":34962
		},
		{
			"buffer":0,
			"byteLength":5016,
			"byteOffset":570248,
			"target":34962
		},
		{
			"buffer":0,
			"byteLength":7524,
			"byteOffset":575264,
			"target":34962
		},
		{
			"buffer":0,
			"byteLength":7524,
			"byteOffset":582788,
			"target":34962
		},
		{
			"buffer":0,
			"byteLength":5016,
			"byteOffset":590312,
			"target":34962
		},
		{
			"buffer":0,
			"byteLength":5760,
			"byteOffset":595328,
			"target":34963
		}
	],
	"samplers":[
		{
			"magFilter":9729,
			"minFilter":9987
		}
	],
	"buffers":[
		{
			"byteLength":601088,
			"uri":"data:application/octet-stream;base64,"
		}
	]
}
