{
    "asset" : {
        "generator" : "Khronos glTF Blender I/O v1.8.19",
        "version" : "2.0"
    },
    "scene" : 0,
    "scenes" : [
        {
            "name" : "Scene",
            "nodes" : [
                5
            ]
        }
    ],
    "nodes" : [
        {
            "mesh" : 0,
            "name" : "body1.001",
            "rotation" : [
                -0.22702057659626007,
                -0.754253625869751,
                0.5685459971427917,
                0.23731553554534912
            ],
            "scale" : [
                0.3184394836425781,
                0.31843942403793335,
                0.31843945384025574
            ],
            "translation" : [
                7.7565507888793945,
                -29.303871154785156,
                11.862641334533691
            ]
        },
        {
            "children" : [
                0
            ],
            "name" : "bodyseaplants"
        },
        {
            "name" : "plants1"
        },
        {
            "mesh" : 1,
            "name" : "rock1.001",
            "scale" : [
                -0.6181433200836182,
                -0.6365936398506165,
                -0.27529680728912354
            ],
            "translation" : [
                8.633368492126465,
                -30.451862335205078,
                12.378583908081055
            ]
        },
        {
            "children" : [
                1,
                2,
                3
            ],
            "name" : "seaplant",
            "translation" : [
                -9.46714973449707,
                35.69388198852539,
                4.255959987640381
            ]
        },
        {
            "children" : [
                4
            ],
            "name" : "scene",
            "rotation" : [
                0.7071068286895752,
                0,
                0,
                0.7071068286895752
            ],
            "scale" : [
                0.9254461526870728,
                0.9254461526870728,
                0.9254461526870728
            ],
            "translation" : [
                1.92372465133667,
                15.90648078918457,
                -5.180302619934082
            ]
        }
    ],
    "materials" : [
        {
            "doubleSided" : true,
            "name" : "Material",
            "pbrMetallicRoughness" : {
                "baseColorTexture" : {
                    "index" : 0
                },
                "metallicFactor" : 0,
                "roughnessFactor" : 0.5
            }
        },
        {
            "doubleSided" : true,
            "name" : "Material.018",
            "pbrMetallicRoughness" : {
                "baseColorTexture" : {
                    "index" : 1
                },
                "metallicFactor" : 0,
                "roughnessFactor" : 0.5
            }
        }
    ],
    "meshes" : [
        {
            "name" : "Cube.002",
            "primitives" : [
                {
                    "attributes" : {
                        "POSITION" : 0,
                        "NORMAL" : 1,
                        "TEXCOORD_0" : 2
                    },
                    "indices" : 3,
                    "material" : 0
                }
            ]
        },
        {
            "name" : "Cube.004",
            "primitives" : [
                {
                    "attributes" : {
                        "POSITION" : 4,
                        "NORMAL" : 5,
                        "TEXCOORD_0" : 6
                    },
                    "indices" : 7,
                    "material" : 1
                }
            ]
        }
    ],
    "textures" : [
        {
            "sampler" : 0,
            "source" : 0
        },
        {
            "sampler" : 0,
            "source" : 1
        }
    ],
    "images" : [
        {
            "bufferView" : 4,
            "mimeType" : "image/png",
            "name" : "Material Base Color"
        },
        {
            "bufferView" : 9,
            "mimeType" : "image/png",
            "name" : "Cube"
        }
    ],
    "accessors" : [
        {
            "bufferView" : 0,
            "componentType" : 5126,
            "count" : 24208,
            "max" : [
                4.727810382843018,
                11.092538833618164,
                4.6290483474731445
            ],
            "min" : [
                -3.9747095108032227,
                -3.7149035930633545,
                -2.343519449234009
            ],
            "type" : "VEC3"
        },
        {
            "bufferView" : 1,
            "componentType" : 5126,
            "count" : 24208,
            "type" : "VEC3"
        },
        {
            "bufferView" : 2,
            "componentType" : 5126,
            "count" : 24208,
            "type" : "VEC2"
        },
        {
            "bufferView" : 3,
            "componentType" : 5123,
            "count" : 24330,
            "type" : "SCALAR"
        },
        {
            "bufferView" : 5,
            "componentType" : 5126,
            "count" : 803,
            "max" : [
                4.960900783538818,
                1.9181643724441528,
                -0.32653266191482544
            ],
            "min" : [
                -1.0410326719284058,
                -3.671780586242676,
                -3.4281513690948486
            ],
            "type" : "VEC3"
        },
        {
            "bufferView" : 6,
            "componentType" : 5126,
            "count" : 803,
            "type" : "VEC3"
        },
        {
            "bufferView" : 7,
            "componentType" : 5126,
            "count" : 803,
            "type" : "VEC2"
        },
        {
            "bufferView" : 8,
            "componentType" : 5123,
            "count" : 3684,
            "type" : "SCALAR"
        }
    ],
    "bufferViews" : [
        {
            "buffer" : 0,
            "byteLength" : 290496,
            "byteOffset" : 0
        },
        {
            "buffer" : 0,
            "byteLength" : 290496,
            "byteOffset" : 290496
        },
        {
            "buffer" : 0,
            "byteLength" : 193664,
            "byteOffset" : 580992
        },
        {
            "buffer" : 0,
            "byteLength" : 48660,
            "byteOffset" : 774656
        },
        {
            "buffer" : 0,
            "byteLength" : 21332,
            "byteOffset" : 823316
        },
        {
            "buffer" : 0,
            "byteLength" : 9636,
            "byteOffset" : 844648
        },
        {
            "buffer" : 0,
            "byteLength" : 9636,
            "byteOffset" : 854284
        },
        {
            "buffer" : 0,
            "byteLength" : 6424,
            "byteOffset" : 863920
        },
        {
            "buffer" : 0,
            "byteLength" : 7368,
            "byteOffset" : 870344
        },
        {
            "buffer" : 0,
            "byteLength" : 20720,
            "byteOffset" : 877712
        }
    ],
    "samplers" : [
        {
            "magFilter" : 9729,
            "minFilter" : 9987
        }
    ],
    "buffers" : [
        {
            "byteLength" : 898432,
            "uri" : "data:application/octet-stream;base64,"
        }
    ]
}
