{
	"asset":{
		"generator":"Khronos glTF Blender I/O v3.6.28",
		"version":"2.0"
	},
	"scene":0,
	"scenes":[
		{
			"name":"Scene",
			"nodes":[
				6
			]
		}
	],
	"nodes":[
		{
			"mesh":0,
			"name":"gane",
			"rotation":[
				0,
				-0.7071066498756409,
				-0.70710688829422,
				0
			],
			"scale":[
				-9.045049667358398,
				-9.665029525756836,
				-18.00225830078125
			],
			"translation":[
				9.628568649291992,
				17.23387908935547,
				-0.14612683653831482
			]
		},
		{
			"mesh":1,
			"name":"gane.001",
			"rotation":[
				-0.128245547413826,
				-0.6953797936439514,
				-0.695379912853241,
				0.128245547413826
			],
			"scale":[
				-12.622751235961914,
				-13.487958908081055,
				-25.122913360595703
			],
			"translation":[
				19.569629669189453,
				25.18368911743164,
				-3.234386920928955
			]
		},
		{
			"mesh":2,
			"name":"gane.002",
			"rotation":[
				0,
				-0.7071066498756409,
				-0.70710688829422,
				0
			],
			"scale":[
				-10.02784252166748,
				-10.71518611907959,
				-19.958297729492188
			],
			"translation":[
				3.9845380783081055,
				20.806060791015625,
				-0.236826553940773
			]
		},
		{
			"mesh":3,
			"name":"leaves",
			"rotation":[
				-0.2511380612850189,
				-0.9181168675422668,
				0.26128795742988586,
				0.16037385165691376
			],
			"scale":[
				0.5888498425483704,
				0.5888498425483704,
				0.5888497233390808
			],
			"translation":[
				1.178239345550537,
				29.023378372192383,
				0.28846511244773865
			]
		},
		{
			"mesh":4,
			"name":"leaves.001",
			"rotation":[
				-0.19958415627479553,
				-0.8738039135932922,
				0.30250272154808044,
				0.3242299258708954
			],
			"scale":[
				0.8217650055885315,
				0.8217650055885315,
				0.8217648863792419
			],
			"translation":[
				8.769001960754395,
				41.636436462402344,
				1.5389001369476318
			]
		},
		{
			"mesh":5,
			"name":"leaves.002",
			"rotation":[
				0.3224046230316162,
				0.9204142093658447,
				-0.16552050411701202,
				0.14661553502082825
			],
			"scale":[
				0.6528315544128418,
				0.6528315544128418,
				0.6528313755989075
			],
			"translation":[
				-5.3839640617370605,
				33.87655258178711,
				0.24498577415943146
			]
		},
		{
			"children":[
				0,
				1,
				2,
				3,
				4,
				5
			],
			"name":"scene"
		}
	],
	"materials":[
		{
			"doubleSided":true,
			"name":"gane",
			"pbrMetallicRoughness":{
				"baseColorFactor":[
					0.000472711690235883,
					0.030818164348602295,
					0.0036890078336000443,
					1
				],
				"metallicFactor":0,
				"roughnessFactor":0.5
			}
		},
		{
			"doubleSided":true,
			"name":"leaves",
			"pbrMetallicRoughness":{
				"baseColorFactor":[
					0.04304882511496544,
					0.5260863304138184,
					0.10667967051267624,
					1
				],
				"metallicFactor":0,
				"roughnessFactor":0.5
			}
		}
	],
	"meshes":[
		{
			"name":"Plane",
			"primitives":[
				{
					"attributes":{
						"POSITION":0,
						"NORMAL":1,
						"TEXCOORD_0":2
					},
					"indices":3,
					"material":0
				}
			]
		},
		{
			"name":"Plane.001",
			"primitives":[
				{
					"attributes":{
						"POSITION":4,
						"NORMAL":5,
						"TEXCOORD_0":6
					},
					"indices":3,
					"material":0
				}
			]
		},
		{
			"name":"Plane.002",
			"primitives":[
				{
					"attributes":{
						"POSITION":7,
						"NORMAL":8,
						"TEXCOORD_0":9
					},
					"indices":3,
					"material":0
				}
			]
		},
		{
			"name":"Plane.003",
			"primitives":[
				{
					"attributes":{
						"POSITION":10,
						"NORMAL":11,
						"TEXCOORD_0":12
					},
					"indices":13,
					"material":1
				}
			]
		},
		{
			"name":"Plane.004",
			"primitives":[
				{
					"attributes":{
						"POSITION":14,
						"NORMAL":15,
						"TEXCOORD_0":16
					},
					"indices":13,
					"material":1
				}
			]
		},
		{
			"name":"Plane.005",
			"primitives":[
				{
					"attributes":{
						"POSITION":17,
						"NORMAL":18,
						"TEXCOORD_0":19
					},
					"indices":13,
					"material":1
				}
			]
		}
	],
	"accessors":[
		{
			"bufferView":0,
			"componentType":5126,
			"count":813,
			"max":[
				-0.9020504355430603,
				0.020043978467583656,
				1.006100058555603
			],
			"min":[
				-1.1421617269515991,
				-0.020043766126036644,
				-1.0015287399291992
			],
			"type":"VEC3"
		},
		{
			"bufferView":1,
			"componentType":5126,
			"count":813,
			"type":"VEC3"
		},
		{
			"bufferView":2,
			"componentType":5126,
			"count":813,
			"type":"VEC2"
		},
		{
			"bufferView":3,
			"componentType":5123,
			"count":4644,
			"type":"SCALAR"
		},
		{
			"bufferView":4,
			"componentType":5126,
			"count":813,
			"max":[
				-0.9020504355430603,
				0.020043978467583656,
				1.006100058555603
			],
			"min":[
				-1.1421617269515991,
				-0.020043766126036644,
				-1.0015287399291992
			],
			"type":"VEC3"
		},
		{
			"bufferView":5,
			"componentType":5126,
			"count":813,
			"type":"VEC3"
		},
		{
			"bufferView":6,
			"componentType":5126,
			"count":813,
			"type":"VEC2"
		},
		{
			"bufferView":7,
			"componentType":5126,
			"count":813,
			"max":[
				-0.9020504355430603,
				0.020043978467583656,
				1.006100058555603
			],
			"min":[
				-1.1421617269515991,
				-0.020043766126036644,
				-1.0015287399291992
			],
			"type":"VEC3"
		},
		{
			"bufferView":8,
			"componentType":5126,
			"count":813,
			"type":"VEC3"
		},
		{
			"bufferView":9,
			"componentType":5126,
			"count":813,
			"type":"VEC2"
		},
		{
			"bufferView":10,
			"componentType":5126,
			"count":826,
			"max":[
				9.783753395080566,
				4.739617347717285,
				19.448192596435547
			],
			"min":[
				-27.723169326782227,
				-34.381492614746094,
				-3.744033098220825
			],
			"type":"VEC3"
		},
		{
			"bufferView":11,
			"componentType":5126,
			"count":826,
			"type":"VEC3"
		},
		{
			"bufferView":12,
			"componentType":5126,
			"count":826,
			"type":"VEC2"
		},
		{
			"bufferView":13,
			"componentType":5123,
			"count":3930,
			"type":"SCALAR"
		},
		{
			"bufferView":14,
			"componentType":5126,
			"count":826,
			"max":[
				9.783753395080566,
				4.739617347717285,
				19.448192596435547
			],
			"min":[
				-27.723169326782227,
				-34.381492614746094,
				-3.744033098220825
			],
			"type":"VEC3"
		},
		{
			"bufferView":15,
			"componentType":5126,
			"count":826,
			"type":"VEC3"
		},
		{
			"bufferView":16,
			"componentType":5126,
			"count":826,
			"type":"VEC2"
		},
		{
			"bufferView":17,
			"componentType":5126,
			"count":826,
			"max":[
				9.783753395080566,
				4.739617347717285,
				19.448192596435547
			],
			"min":[
				-27.723169326782227,
				-34.381492614746094,
				-3.744033098220825
			],
			"type":"VEC3"
		},
		{
			"bufferView":18,
			"componentType":5126,
			"count":826,
			"type":"VEC3"
		},
		{
			"bufferView":19,
			"componentType":5126,
			"count":826,
			"type":"VEC2"
		}
	],
	"bufferViews":[
		{
			"buffer":0,
			"byteLength":9756,
			"byteOffset":0,
			"target":34962
		},
		{
			"buffer":0,
			"byteLength":9756,
			"byteOffset":9756,
			"target":34962
		},
		{
			"buffer":0,
			"byteLength":6504,
			"byteOffset":19512,
			"target":34962
		},
		{
			"buffer":0,
			"byteLength":9288,
			"byteOffset":26016,
			"target":34963
		},
		{
			"buffer":0,
			"byteLength":9756,
			"byteOffset":35304,
			"target":34962
		},
		{
			"buffer":0,
			"byteLength":9756,
			"byteOffset":45060,
			"target":34962
		},
		{
			"buffer":0,
			"byteLength":6504,
			"byteOffset":54816,
			"target":34962
		},
		{
			"buffer":0,
			"byteLength":9756,
			"byteOffset":61320,
			"target":34962
		},
		{
			"buffer":0,
			"byteLength":9756,
			"byteOffset":71076,
			"target":34962
		},
		{
			"buffer":0,
			"byteLength":6504,
			"byteOffset":80832,
			"target":34962
		},
		{
			"buffer":0,
			"byteLength":9912,
			"byteOffset":87336,
			"target":34962
		},
		{
			"buffer":0,
			"byteLength":9912,
			"byteOffset":97248,
			"target":34962
		},
		{
			"buffer":0,
			"byteLength":6608,
			"byteOffset":107160,
			"target":34962
		},
		{
			"buffer":0,
			"byteLength":7860,
			"byteOffset":113768,
			"target":34963
		},
		{
			"buffer":0,
			"byteLength":9912,
			"byteOffset":121628,
			"target":34962
		},
		{
			"buffer":0,
			"byteLength":9912,
			"byteOffset":131540,
			"target":34962
		},
		{
			"buffer":0,
			"byteLength":6608,
			"byteOffset":141452,
			"target":34962
		},
		{
			"buffer":0,
			"byteLength":9912,
			"byteOffset":148060,
			"target":34962
		},
		{
			"buffer":0,
			"byteLength":9912,
			"byteOffset":157972,
			"target":34962
		},
		{
			"buffer":0,
			"byteLength":6608,
			"byteOffset":167884,
			"target":34962
		}
	],
	"buffers":[
		{
			"byteLength":174492,
			"uri":"data:application/octet-stream;base64,"
		}
	]
}
