{
    "asset" : {
        "generator" : "Khronos glTF Blender I/O v1.8.19",
        "version" : "2.0"
    },
    "scene" : 0,
    "scenes" : [
        {
            "name" : "Scene",
            "nodes" : [
                10
            ]
        }
    ],
    "nodes" : [
        {
            "mesh" : 0,
            "name" : "Sphere",
            "rotation" : [
                0,
                0,
                0.1428622454404831,
                0.9897425770759583
            ],
            "scale" : [
                0.27148154377937317,
                1,
                0.5070174336433411
            ],
            "translation" : [
                0,
                0.7064819931983948,
                0
            ]
        },
        {
            "mesh" : 1,
            "name" : "Sphere.001",
            "rotation" : [
                0,
                0,
                0.12097868323326111,
                0.9926550984382629
            ],
            "scale" : [
                0.22411423921585083,
                0.296591192483902,
                0.42451754212379456
            ],
            "translation" : [
                0.13669736683368683,
                0.23823228478431702,
                0
            ]
        },
        {
            "mesh" : 2,
            "name" : "Sphere.002",
            "rotation" : [
                0,
                0,
                0.1321742683649063,
                0.9912264943122864
            ],
            "scale" : [
                0.10931899398565292,
                0.6372770071029663,
                0.7328242659568787
            ],
            "translation" : [
                -0.1832071989774704,
                1.198038101196289,
                0
            ]
        },
        {
            "children" : [
                0,
                1,
                2
            ],
            "name" : "body"
        },
        {
            "mesh" : 3,
            "name" : "tantacle1",
            "rotation" : [
                -0.42133188247680664,
                -0.5814810395240784,
                0.5442180037498474,
                0.43380409479141235
            ],
            "scale" : [
                0.6983142495155334,
                -0.08263219147920609,
                0.07343068718910217
            ],
            "translation" : [
                0.258384644985199,
                -0.20247124135494232,
                0.26117146015167236
            ]
        },
        {
            "mesh" : 4,
            "name" : "tantacle3",
            "rotation" : [
                -0.42133188247680664,
                -0.5814810395240784,
                0.5442180037498474,
                0.43380409479141235
            ],
            "scale" : [
                0.6983142495155334,
                -0.08263219147920609,
                0.07343068718910217
            ],
            "translation" : [
                0.258384644985199,
                -0.20247124135494232,
                -0.08349934965372086
            ]
        },
        {
            "mesh" : 5,
            "name" : "tantacle4",
            "rotation" : [
                -0.42133188247680664,
                -0.5814810395240784,
                0.5442180037498474,
                0.43380409479141235
            ],
            "scale" : [
                0.6983142495155334,
                -0.08263219147920609,
                0.07343068718910217
            ],
            "translation" : [
                0.258384644985199,
                -0.20247124135494232,
                -0.2520161271095276
            ]
        },
        {
            "mesh" : 6,
            "name" : "tatacle2",
            "rotation" : [
                -0.42133188247680664,
                -0.5814810395240784,
                0.5442180037498474,
                0.43380409479141235
            ],
            "scale" : [
                0.6983142495155334,
                -0.08263219147920609,
                0.07343068718910217
            ],
            "translation" : [
                0.258384644985199,
                -0.20247124135494232,
                0.10040799528360367
            ]
        },
        {
            "children" : [
                4,
                5,
                6,
                7
            ],
            "name" : "tantacle"
        },
        {
            "children" : [
                3,
                8
            ],
            "name" : "squid",
            "rotation" : [
                0.4170931279659271,
                0.49571987986564636,
                -0.5828929543495178,
                0.4904395341873169
            ],
            "translation" : [
                0,
                0.08328481018543243,
                0.0708293616771698
            ]
        },
        {
            "children" : [
                9
            ],
            "name" : "scene"
        }
    ],
    "materials" : [
        {
            "doubleSided" : true,
            "name" : "Material.004",
            "pbrMetallicRoughness" : {
                "baseColorTexture" : {
                    "index" : 0
                },
                "metallicFactor" : 0,
                "roughnessFactor" : 0.5
            }
        }
    ],
    "meshes" : [
        {
            "name" : "Sphere",
            "primitives" : [
                {
                    "attributes" : {
                        "POSITION" : 0,
                        "NORMAL" : 1,
                        "TEXCOORD_0" : 2
                    },
                    "indices" : 3,
                    "material" : 0
                }
            ]
        },
        {
            "name" : "Sphere.001",
            "primitives" : [
                {
                    "attributes" : {
                        "POSITION" : 4,
                        "NORMAL" : 5,
                        "TEXCOORD_0" : 6
                    },
                    "indices" : 7,
                    "material" : 0
                }
            ]
        },
        {
            "name" : "Sphere.003",
            "primitives" : [
                {
                    "attributes" : {
                        "POSITION" : 8,
                        "NORMAL" : 9,
                        "TEXCOORD_0" : 10
                    },
                    "indices" : 11,
                    "material" : 0
                }
            ]
        },
        {
            "name" : "Sphere.004",
            "primitives" : [
                {
                    "attributes" : {
                        "POSITION" : 12,
                        "NORMAL" : 13,
                        "TEXCOORD_0" : 14
                    },
                    "indices" : 15,
                    "material" : 0
                }
            ]
        },
        {
            "name" : "Sphere.006",
            "primitives" : [
                {
                    "attributes" : {
                        "POSITION" : 16,
                        "NORMAL" : 17,
                        "TEXCOORD_0" : 18
                    },
                    "indices" : 19,
                    "material" : 0
                }
            ]
        },
        {
            "name" : "Sphere.007",
            "primitives" : [
                {
                    "attributes" : {
                        "POSITION" : 20,
                        "NORMAL" : 21,
                        "TEXCOORD_0" : 22
                    },
                    "indices" : 23,
                    "material" : 0
                }
            ]
        },
        {
            "name" : "Sphere.005",
            "primitives" : [
                {
                    "attributes" : {
                        "POSITION" : 24,
                        "NORMAL" : 25,
                        "TEXCOORD_0" : 26
                    },
                    "indices" : 27,
                    "material" : 0
                }
            ]
        }
    ],
    "textures" : [
        {
            "sampler" : 0,
            "source" : 0
        }
    ],
    "images" : [
        {
            "bufferView" : 4,
            "mimeType" : "image/png",
            "name" : "squid texture"
        }
    ],
    "accessors" : [
        {
            "bufferView" : 0,
            "componentType" : 5126,
            "count" : 550,
            "max" : [
                0.9999997019767761,
                1,
                0.9999993443489075
            ],
            "min" : [
                -0.9999990463256836,
                -0.5555702447891235,
                -1
            ],
            "type" : "VEC3"
        },
        {
            "bufferView" : 1,
            "componentType" : 5126,
            "count" : 550,
            "type" : "VEC3"
        },
        {
            "bufferView" : 2,
            "componentType" : 5126,
            "count" : 550,
            "type" : "VEC2"
        },
        {
            "bufferView" : 3,
            "componentType" : 5123,
            "count" : 2424,
            "type" : "SCALAR"
        },
        {
            "bufferView" : 5,
            "componentType" : 5126,
            "count" : 596,
            "max" : [
                0.9999997019767761,
                1,
                0.9999993443489075
            ],
            "min" : [
                -0.9999990463256836,
                -1,
                -1
            ],
            "type" : "VEC3"
        },
        {
            "bufferView" : 6,
            "componentType" : 5126,
            "count" : 596,
            "type" : "VEC3"
        },
        {
            "bufferView" : 7,
            "componentType" : 5126,
            "count" : 596,
            "type" : "VEC2"
        },
        {
            "bufferView" : 8,
            "componentType" : 5123,
            "count" : 2880,
            "type" : "SCALAR"
        },
        {
            "bufferView" : 9,
            "componentType" : 5126,
            "count" : 583,
            "max" : [
                0.9999997019767761,
                0.8745164275169373,
                0.999441385269165
            ],
            "min" : [
                -0.9999990463256836,
                -0.6401888132095337,
                -0.9994322657585144
            ],
            "type" : "VEC3"
        },
        {
            "bufferView" : 10,
            "componentType" : 5126,
            "count" : 583,
            "type" : "VEC3"
        },
        {
            "bufferView" : 11,
            "componentType" : 5126,
            "count" : 583,
            "type" : "VEC2"
        },
        {
            "bufferView" : 12,
            "componentType" : 5123,
            "count" : 2880,
            "type" : "SCALAR"
        },
        {
            "bufferView" : 13,
            "componentType" : 5126,
            "count" : 596,
            "max" : [
                0.9999997019767761,
                1,
                0.9999993443489075
            ],
            "min" : [
                -0.9999990463256836,
                -1,
                -1
            ],
            "type" : "VEC3"
        },
        {
            "bufferView" : 14,
            "componentType" : 5126,
            "count" : 596,
            "type" : "VEC3"
        },
        {
            "bufferView" : 15,
            "componentType" : 5126,
            "count" : 596,
            "type" : "VEC2"
        },
        {
            "bufferView" : 16,
            "componentType" : 5123,
            "count" : 2880,
            "type" : "SCALAR"
        },
        {
            "bufferView" : 17,
            "componentType" : 5126,
            "count" : 596,
            "max" : [
                0.9999997019767761,
                1,
                0.9999993443489075
            ],
            "min" : [
                -0.9999990463256836,
                -1,
                -1
            ],
            "type" : "VEC3"
        },
        {
            "bufferView" : 18,
            "componentType" : 5126,
            "count" : 596,
            "type" : "VEC3"
        },
        {
            "bufferView" : 19,
            "componentType" : 5126,
            "count" : 596,
            "type" : "VEC2"
        },
        {
            "bufferView" : 20,
            "componentType" : 5123,
            "count" : 2880,
            "type" : "SCALAR"
        },
        {
            "bufferView" : 21,
            "componentType" : 5126,
            "count" : 596,
            "max" : [
                0.9999997019767761,
                1,
                0.9999993443489075
            ],
            "min" : [
                -0.9999990463256836,
                -1,
                -1
            ],
            "type" : "VEC3"
        },
        {
            "bufferView" : 22,
            "componentType" : 5126,
            "count" : 596,
            "type" : "VEC3"
        },
        {
            "bufferView" : 23,
            "componentType" : 5126,
            "count" : 596,
            "type" : "VEC2"
        },
        {
            "bufferView" : 24,
            "componentType" : 5123,
            "count" : 2880,
            "type" : "SCALAR"
        },
        {
            "bufferView" : 25,
            "componentType" : 5126,
            "count" : 596,
            "max" : [
                0.9999997019767761,
                1,
                0.9999993443489075
            ],
            "min" : [
                -0.9999990463256836,
                -1,
                -1
            ],
            "type" : "VEC3"
        },
        {
            "bufferView" : 26,
            "componentType" : 5126,
            "count" : 596,
            "type" : "VEC3"
        },
        {
            "bufferView" : 27,
            "componentType" : 5126,
            "count" : 596,
            "type" : "VEC2"
        },
        {
            "bufferView" : 28,
            "componentType" : 5123,
            "count" : 2880,
            "type" : "SCALAR"
        }
    ],
    "bufferViews" : [
        {
            "buffer" : 0,
            "byteLength" : 6600,
            "byteOffset" : 0
        },
        {
            "buffer" : 0,
            "byteLength" : 6600,
            "byteOffset" : 6600
        },
        {
            "buffer" : 0,
            "byteLength" : 4400,
            "byteOffset" : 13200
        },
        {
            "buffer" : 0,
            "byteLength" : 4848,
            "byteOffset" : 17600
        },
        {
            "buffer" : 0,
            "byteLength" : 48820,
            "byteOffset" : 22448
        },
        {
            "buffer" : 0,
            "byteLength" : 7152,
            "byteOffset" : 71268
        },
        {
            "buffer" : 0,
            "byteLength" : 7152,
            "byteOffset" : 78420
        },
        {
            "buffer" : 0,
            "byteLength" : 4768,
            "byteOffset" : 85572
        },
        {
            "buffer" : 0,
            "byteLength" : 5760,
            "byteOffset" : 90340
        },
        {
            "buffer" : 0,
            "byteLength" : 6996,
            "byteOffset" : 96100
        },
        {
            "buffer" : 0,
            "byteLength" : 6996,
            "byteOffset" : 103096
        },
        {
            "buffer" : 0,
            "byteLength" : 4664,
            "byteOffset" : 110092
        },
        {
            "buffer" : 0,
            "byteLength" : 5760,
            "byteOffset" : 114756
        },
        {
            "buffer" : 0,
            "byteLength" : 7152,
            "byteOffset" : 120516
        },
        {
            "buffer" : 0,
            "byteLength" : 7152,
            "byteOffset" : 127668
        },
        {
            "buffer" : 0,
            "byteLength" : 4768,
            "byteOffset" : 134820
        },
        {
            "buffer" : 0,
            "byteLength" : 5760,
            "byteOffset" : 139588
        },
        {
            "buffer" : 0,
            "byteLength" : 7152,
            "byteOffset" : 145348
        },
        {
            "buffer" : 0,
            "byteLength" : 7152,
            "byteOffset" : 152500
        },
        {
            "buffer" : 0,
            "byteLength" : 4768,
            "byteOffset" : 159652
        },
        {
            "buffer" : 0,
            "byteLength" : 5760,
            "byteOffset" : 164420
        },
        {
            "buffer" : 0,
            "byteLength" : 7152,
            "byteOffset" : 170180
        },
        {
            "buffer" : 0,
            "byteLength" : 7152,
            "byteOffset" : 177332
        },
        {
            "buffer" : 0,
            "byteLength" : 4768,
            "byteOffset" : 184484
        },
        {
            "buffer" : 0,
            "byteLength" : 5760,
            "byteOffset" : 189252
        },
        {
            "buffer" : 0,
            "byteLength" : 7152,
            "byteOffset" : 195012
        },
        {
            "buffer" : 0,
            "byteLength" : 7152,
            "byteOffset" : 202164
        },
        {
            "buffer" : 0,
            "byteLength" : 4768,
            "byteOffset" : 209316
        },
        {
            "buffer" : 0,
            "byteLength" : 5760,
            "byteOffset" : 214084
        }
    ],
    "samplers" : [
        {
            "magFilter" : 9729,
            "minFilter" : 9987
        }
    ],
    "buffers" : [
        {
            "byteLength" : 219844,
            "uri" : "data:application/octet-stream;base64,"
        }
    ]
}
