{
	"asset":{
		"generator":"Khronos glTF Blender I/O v3.6.28",
		"version":"2.0"
	},
	"scene":0,
	"scenes":[
		{
			"name":"Scene",
			"nodes":[
				4
			]
		}
	],
	"nodes":[
		{
			"mesh":0,
			"name":"body",
			"rotation":[
				0,
				-0.891730785369873,
				0,
				0.4525662362575531
			],
			"scale":[
				-0.18125438690185547,
				-0.033362556248903275,
				-0.12477067857980728
			],
			"translation":[
				1.0065842866897583,
				0.09286833554506302,
				-0.14335304498672485
			]
		},
		{
			"mesh":1,
			"name":"tail",
			"rotation":[
				0,
				0,
				-0.7002034187316895,
				0.713943362236023
			],
			"scale":[
				0.0574832484126091,
				1.1375515460968018,
				0.0539468377828598
			],
			"translation":[
				1.3611689805984497,
				0.11372232437133789,
				0
			]
		},
		{
			"children":[
				0,
				1
			],
			"name":"stingray",
			"rotation":[
				0,
				1,
				0,
				7.549790126404332e-08
			]
		},
		{
			"name":"world"
		},
		{
			"children":[
				2,
				3
			],
			"name":"scene"
		}
	],
	"materials":[
		{
			"doubleSided":true,
			"name":"stingMaterail",
			"pbrMetallicRoughness":{
				"baseColorTexture":{
					"index":0
				},
				"metallicFactor":0,
				"roughnessFactor":0.5
			}
		}
	],
	"meshes":[
		{
			"name":"Sphere.009",
			"primitives":[
				{
					"attributes":{
						"POSITION":0,
						"NORMAL":1,
						"TEXCOORD_0":2
					},
					"indices":3,
					"material":0
				}
			]
		},
		{
			"name":"Cone",
			"primitives":[
				{
					"attributes":{
						"POSITION":4,
						"NORMAL":5,
						"TEXCOORD_0":6
					},
					"indices":7
				}
			]
		}
	],
	"textures":[
		{
			"sampler":0,
			"source":0
		}
	],
	"images":[
		{
			"bufferView":4,
			"mimeType":"image/png",
			"name":"_Sting"
		}
	],
	"accessors":[
		{
			"bufferView":0,
			"componentType":5126,
			"count":5168,
			"max":[
				2.5754339694976807,
				3.4720230102539062,
				3.0489048957824707
			],
			"min":[
				-9.923486709594727,
				-10.023199081420898,
				-13.750556945800781
			],
			"type":"VEC3"
		},
		{
			"bufferView":1,
			"componentType":5126,
			"count":5168,
			"type":"VEC3"
		},
		{
			"bufferView":2,
			"componentType":5126,
			"count":5168,
			"type":"VEC2"
		},
		{
			"bufferView":3,
			"componentType":5123,
			"count":11520,
			"type":"SCALAR"
		},
		{
			"bufferView":5,
			"componentType":5126,
			"count":128,
			"max":[
				1,
				1,
				1
			],
			"min":[
				-1,
				-1,
				-1
			],
			"type":"VEC3"
		},
		{
			"bufferView":6,
			"componentType":5126,
			"count":128,
			"type":"VEC3"
		},
		{
			"bufferView":7,
			"componentType":5126,
			"count":128,
			"type":"VEC2"
		},
		{
			"bufferView":8,
			"componentType":5123,
			"count":186,
			"type":"SCALAR"
		}
	],
	"bufferViews":[
		{
			"buffer":0,
			"byteLength":62016,
			"byteOffset":0,
			"target":34962
		},
		{
			"buffer":0,
			"byteLength":62016,
			"byteOffset":62016,
			"target":34962
		},
		{
			"buffer":0,
			"byteLength":41344,
			"byteOffset":124032,
			"target":34962
		},
		{
			"buffer":0,
			"byteLength":23040,
			"byteOffset":165376,
			"target":34963
		},
		{
			"buffer":0,
			"byteLength":45547,
			"byteOffset":188416
		},
		{
			"buffer":0,
			"byteLength":1536,
			"byteOffset":233964,
			"target":34962
		},
		{
			"buffer":0,
			"byteLength":1536,
			"byteOffset":235500,
			"target":34962
		},
		{
			"buffer":0,
			"byteLength":1024,
			"byteOffset":237036,
			"target":34962
		},
		{
			"buffer":0,
			"byteLength":372,
			"byteOffset":238060,
			"target":34963
		}
	],
	"samplers":[
		{
			"magFilter":9729,
			"minFilter":9987
		}
	],
	"buffers":[
		{
			"byteLength":238432,
			"uri":"data:application/octet-stream;base64,"
		}
	]
}
