{
    "asset" : {
        "generator" : "Khronos glTF Blender I/O v1.8.19",
        "version" : "2.0"
    },
    "scene" : 0,
    "scenes" : [
        {
            "name" : "Scene",
            "nodes" : [
                14
            ]
        }
    ],
    "nodes" : [
        {
            "mesh" : 0,
            "name" : "head",
            "scale" : [
                1,
                0.8351494669914246,
                0.9249097108840942
            ],
            "translation" : [
                -1.4754799604415894,
                0.2133803367614746,
                0
            ]
        },
        {
            "mesh" : 1,
            "name" : "L-eye",
            "rotation" : [
                -0.1894872486591339,
                0.34481310844421387,
                -0.07128430902957916,
                0.916579008102417
            ],
            "scale" : [
                0.15747332572937012,
                0.25,
                0.25
            ],
            "translation" : [
                -1.772087574005127,
                0.36876779794692993,
                0.17880629003047943
            ]
        },
        {
            "mesh" : 2,
            "name" : "m-body",
            "scale" : [
                2.970592975616455,
                0.7900000214576721,
                2.458545684814453
            ]
        },
        {
            "mesh" : 3,
            "name" : "neck",
            "rotation" : [
                0,
                0,
                -0.8494592905044556,
                0.5276541709899902
            ],
            "scale" : [
                0.16981029510498047,
                0.3929576575756073,
                0.2388647496700287
            ],
            "translation" : [
                -0.8902140855789185,
                -0.05000000074505806,
                -0.04813174903392792
            ]
        },
        {
            "mesh" : 4,
            "name" : "R-eye",
            "rotation" : [
                -0.10294828563928604,
                -0.3059229254722595,
                -0.17432285845279694,
                0.9302818775177002
            ],
            "scale" : [
                0.15747332572937012,
                0.25,
                0.25
            ],
            "translation" : [
                -1.772087574005127,
                0.36876779794692993,
                -0.17880600690841675
            ]
        },
        {
            "mesh" : 5,
            "name" : "shell",
            "scale" : [
                1.2009860277175903,
                0.63630211353302,
                1
            ]
        },
        {
            "children" : [
                0,
                1,
                2,
                3,
                4,
                5
            ],
            "name" : "body"
        },
        {
            "mesh" : 6,
            "name" : "L_back",
            "rotation" : [
                0,
                0.27845585346221924,
                0,
                0.9604490399360657
            ],
            "scale" : [
                0.5930213332176208,
                0.13705694675445557,
                1.514542579650879
            ],
            "translation" : [
                0.5702256560325623,
                -0.08128499984741211,
                0.953495979309082
            ]
        },
        {
            "mesh" : 7,
            "name" : "L_front",
            "rotation" : [
                0,
                -0.2873011827468872,
                0,
                0.9578403234481812
            ],
            "scale" : [
                0.5930213332176208,
                0.13705694675445557,
                1.514542579650879
            ],
            "translation" : [
                -0.6169617772102356,
                -0.0773901417851448,
                0.953495979309082
            ]
        },
        {
            "mesh" : 8,
            "name" : "R-front",
            "rotation" : [
                0,
                0.28730154037475586,
                0,
                0.9578402042388916
            ],
            "scale" : [
                0.5930213332176208,
                0.13705694675445557,
                1.514542579650879
            ],
            "translation" : [
                -0.6169617772102356,
                -0.08128458261489868,
                -0.9534955620765686
            ]
        },
        {
            "mesh" : 9,
            "name" : "R_back",
            "rotation" : [
                0,
                -0.27845558524131775,
                0,
                0.96044921875
            ],
            "scale" : [
                0.5930213332176208,
                0.13705694675445557,
                1.514542579650879
            ],
            "translation" : [
                0.5702256560325623,
                -0.08128499984741211,
                -0.953495979309082
            ]
        },
        {
            "children" : [
                7,
                8,
                9,
                10
            ],
            "name" : "leg"
        },
        {
            "children" : [
                6,
                11
            ],
            "name" : "Turtle",
            "rotation" : [
                0,
                -0.9999977350234985,
                0,
                0.002171232830733061
            ]
        },
        {
            "name" : "world"
        },
        {
            "children" : [
                12,
                13
            ],
            "name" : "scene"
        }
    ],
    "materials" : [
        {
            "doubleSided" : true,
            "name" : "TurtleMaterial",
            "pbrMetallicRoughness" : {
                "baseColorTexture" : {
                    "index" : 0
                },
                "metallicFactor" : 0,
                "roughnessFactor" : 0.5
            }
        }
    ],
    "meshes" : [
        {
            "name" : "Sphere.001",
            "primitives" : [
                {
                    "attributes" : {
                        "POSITION" : 0,
                        "NORMAL" : 1,
                        "TEXCOORD_0" : 2
                    },
                    "indices" : 3,
                    "material" : 0
                }
            ]
        },
        {
            "name" : "Sphere.009",
            "primitives" : [
                {
                    "attributes" : {
                        "POSITION" : 4,
                        "NORMAL" : 5,
                        "TEXCOORD_0" : 6
                    },
                    "indices" : 7,
                    "material" : 0
                }
            ]
        },
        {
            "name" : "Sphere.003",
            "primitives" : [
                {
                    "attributes" : {
                        "POSITION" : 8,
                        "NORMAL" : 9,
                        "TEXCOORD_0" : 10
                    },
                    "indices" : 11,
                    "material" : 0
                }
            ]
        },
        {
            "name" : "Cone.001",
            "primitives" : [
                {
                    "attributes" : {
                        "POSITION" : 12,
                        "NORMAL" : 13,
                        "TEXCOORD_0" : 14
                    },
                    "indices" : 15,
                    "material" : 0
                }
            ]
        },
        {
            "name" : "Sphere.011",
            "primitives" : [
                {
                    "attributes" : {
                        "POSITION" : 16,
                        "NORMAL" : 17,
                        "TEXCOORD_0" : 18
                    },
                    "indices" : 7,
                    "material" : 0
                }
            ]
        },
        {
            "name" : "Sphere",
            "primitives" : [
                {
                    "attributes" : {
                        "POSITION" : 19,
                        "NORMAL" : 20,
                        "TEXCOORD_0" : 21
                    },
                    "indices" : 22,
                    "material" : 0
                }
            ]
        },
        {
            "name" : "Sphere.006",
            "primitives" : [
                {
                    "attributes" : {
                        "POSITION" : 23,
                        "NORMAL" : 24,
                        "TEXCOORD_0" : 25
                    },
                    "indices" : 26,
                    "material" : 0
                }
            ]
        },
        {
            "name" : "Sphere.005",
            "primitives" : [
                {
                    "attributes" : {
                        "POSITION" : 27,
                        "NORMAL" : 28,
                        "TEXCOORD_0" : 29
                    },
                    "indices" : 30,
                    "material" : 0
                }
            ]
        },
        {
            "name" : "Sphere.004",
            "primitives" : [
                {
                    "attributes" : {
                        "POSITION" : 31,
                        "NORMAL" : 32,
                        "TEXCOORD_0" : 33
                    },
                    "indices" : 34,
                    "material" : 0
                }
            ]
        },
        {
            "name" : "Sphere.007",
            "primitives" : [
                {
                    "attributes" : {
                        "POSITION" : 35,
                        "NORMAL" : 36,
                        "TEXCOORD_0" : 37
                    },
                    "indices" : 7,
                    "material" : 0
                }
            ]
        }
    ],
    "textures" : [
        {
            "sampler" : 0,
            "source" : 0
        }
    ],
    "images" : [
        {
            "bufferView" : 4,
            "mimeType" : "image/png",
            "name" : "Body_T"
        }
    ],
    "accessors" : [
        {
            "bufferView" : 0,
            "componentType" : 5126,
            "count" : 596,
            "max" : [
                0.39999982714653015,
                0.4000000059604645,
                0.3999997079372406
            ],
            "min" : [
                -0.39999961853027344,
                -0.4000000059604645,
                -0.4000000059604645
            ],
            "type" : "VEC3"
        },
        {
            "bufferView" : 1,
            "componentType" : 5126,
            "count" : 596,
            "type" : "VEC3"
        },
        {
            "bufferView" : 2,
            "componentType" : 5126,
            "count" : 596,
            "type" : "VEC2"
        },
        {
            "bufferView" : 3,
            "componentType" : 5123,
            "count" : 2880,
            "type" : "SCALAR"
        },
        {
            "bufferView" : 5,
            "componentType" : 5126,
            "count" : 597,
            "max" : [
                0.39999982714653015,
                0.4000000059604645,
                0.3999997079372406
            ],
            "min" : [
                -0.39999961853027344,
                -0.4000000059604645,
                -0.4000000059604645
            ],
            "type" : "VEC3"
        },
        {
            "bufferView" : 6,
            "componentType" : 5126,
            "count" : 597,
            "type" : "VEC3"
        },
        {
            "bufferView" : 7,
            "componentType" : 5126,
            "count" : 597,
            "type" : "VEC2"
        },
        {
            "bufferView" : 8,
            "componentType" : 5123,
            "count" : 2880,
            "type" : "SCALAR"
        },
        {
            "bufferView" : 9,
            "componentType" : 5126,
            "count" : 593,
            "max" : [
                0.39999982714653015,
                0.4000000059604645,
                0.3999997079372406
            ],
            "min" : [
                -0.39999961853027344,
                -0.4000000059604645,
                -0.4000000059604645
            ],
            "type" : "VEC3"
        },
        {
            "bufferView" : 10,
            "componentType" : 5126,
            "count" : 593,
            "type" : "VEC3"
        },
        {
            "bufferView" : 11,
            "componentType" : 5126,
            "count" : 593,
            "type" : "VEC2"
        },
        {
            "bufferView" : 12,
            "componentType" : 5123,
            "count" : 2880,
            "type" : "SCALAR"
        },
        {
            "bufferView" : 13,
            "componentType" : 5126,
            "count" : 64,
            "max" : [
                0.8136153817176819,
                -0.6272307634353638,
                0.8136153817176819
            ],
            "min" : [
                -0.8136153817176819,
                -1,
                -0.8136153817176819
            ],
            "type" : "VEC3"
        },
        {
            "bufferView" : 14,
            "componentType" : 5126,
            "count" : 64,
            "type" : "VEC3"
        },
        {
            "bufferView" : 15,
            "componentType" : 5126,
            "count" : 64,
            "type" : "VEC2"
        },
        {
            "bufferView" : 16,
            "componentType" : 5123,
            "count" : 282,
            "type" : "SCALAR"
        },
        {
            "bufferView" : 17,
            "componentType" : 5126,
            "count" : 597,
            "max" : [
                0.39999982714653015,
                0.4000000059604645,
                0.3999997079372406
            ],
            "min" : [
                -0.39999961853027344,
                -0.4000000059604645,
                -0.4000000059604645
            ],
            "type" : "VEC3"
        },
        {
            "bufferView" : 18,
            "componentType" : 5126,
            "count" : 597,
            "type" : "VEC3"
        },
        {
            "bufferView" : 19,
            "componentType" : 5126,
            "count" : 597,
            "type" : "VEC2"
        },
        {
            "bufferView" : 20,
            "componentType" : 5126,
            "count" : 319,
            "max" : [
                0.9999997019767761,
                1,
                0.9999993443489075
            ],
            "min" : [
                -0.9999990463256836,
                0,
                -1
            ],
            "type" : "VEC3"
        },
        {
            "bufferView" : 21,
            "componentType" : 5126,
            "count" : 319,
            "type" : "VEC3"
        },
        {
            "bufferView" : 22,
            "componentType" : 5126,
            "count" : 319,
            "type" : "VEC2"
        },
        {
            "bufferView" : 23,
            "componentType" : 5123,
            "count" : 1440,
            "type" : "SCALAR"
        },
        {
            "bufferView" : 24,
            "componentType" : 5126,
            "count" : 597,
            "max" : [
                0.39999982714653015,
                0.4000000059604645,
                0.3999997079372406
            ],
            "min" : [
                -0.39999961853027344,
                -0.4000000059604645,
                -0.4000000059604645
            ],
            "type" : "VEC3"
        },
        {
            "bufferView" : 25,
            "componentType" : 5126,
            "count" : 597,
            "type" : "VEC3"
        },
        {
            "bufferView" : 26,
            "componentType" : 5126,
            "count" : 597,
            "type" : "VEC2"
        },
        {
            "bufferView" : 27,
            "componentType" : 5123,
            "count" : 2880,
            "type" : "SCALAR"
        },
        {
            "bufferView" : 28,
            "componentType" : 5126,
            "count" : 597,
            "max" : [
                0.39999982714653015,
                0.4000000059604645,
                0.3999997079372406
            ],
            "min" : [
                -0.39999961853027344,
                -0.4000000059604645,
                -0.4000000059604645
            ],
            "type" : "VEC3"
        },
        {
            "bufferView" : 29,
            "componentType" : 5126,
            "count" : 597,
            "type" : "VEC3"
        },
        {
            "bufferView" : 30,
            "componentType" : 5126,
            "count" : 597,
            "type" : "VEC2"
        },
        {
            "bufferView" : 31,
            "componentType" : 5123,
            "count" : 2880,
            "type" : "SCALAR"
        },
        {
            "bufferView" : 32,
            "componentType" : 5126,
            "count" : 597,
            "max" : [
                0.39999982714653015,
                0.4000000059604645,
                0.3999997079372406
            ],
            "min" : [
                -0.39999961853027344,
                -0.4000000059604645,
                -0.4000000059604645
            ],
            "type" : "VEC3"
        },
        {
            "bufferView" : 33,
            "componentType" : 5126,
            "count" : 597,
            "type" : "VEC3"
        },
        {
            "bufferView" : 34,
            "componentType" : 5126,
            "count" : 597,
            "type" : "VEC2"
        },
        {
            "bufferView" : 35,
            "componentType" : 5123,
            "count" : 2880,
            "type" : "SCALAR"
        },
        {
            "bufferView" : 36,
            "componentType" : 5126,
            "count" : 597,
            "max" : [
                0.39999982714653015,
                0.4000000059604645,
                0.3999997079372406
            ],
            "min" : [
                -0.39999961853027344,
                -0.4000000059604645,
                -0.4000000059604645
            ],
            "type" : "VEC3"
        },
        {
            "bufferView" : 37,
            "componentType" : 5126,
            "count" : 597,
            "type" : "VEC3"
        },
        {
            "bufferView" : 38,
            "componentType" : 5126,
            "count" : 597,
            "type" : "VEC2"
        }
    ],
    "bufferViews" : [
        {
            "buffer" : 0,
            "byteLength" : 7152,
            "byteOffset" : 0
        },
        {
            "buffer" : 0,
            "byteLength" : 7152,
            "byteOffset" : 7152
        },
        {
            "buffer" : 0,
            "byteLength" : 4768,
            "byteOffset" : 14304
        },
        {
            "buffer" : 0,
            "byteLength" : 5760,
            "byteOffset" : 19072
        },
        {
            "buffer" : 0,
            "byteLength" : 61909,
            "byteOffset" : 24832
        },
        {
            "buffer" : 0,
            "byteLength" : 7164,
            "byteOffset" : 86744
        },
        {
            "buffer" : 0,
            "byteLength" : 7164,
            "byteOffset" : 93908
        },
        {
            "buffer" : 0,
            "byteLength" : 4776,
            "byteOffset" : 101072
        },
        {
            "buffer" : 0,
            "byteLength" : 5760,
            "byteOffset" : 105848
        },
        {
            "buffer" : 0,
            "byteLength" : 7116,
            "byteOffset" : 111608
        },
        {
            "buffer" : 0,
            "byteLength" : 7116,
            "byteOffset" : 118724
        },
        {
            "buffer" : 0,
            "byteLength" : 4744,
            "byteOffset" : 125840
        },
        {
            "buffer" : 0,
            "byteLength" : 5760,
            "byteOffset" : 130584
        },
        {
            "buffer" : 0,
            "byteLength" : 768,
            "byteOffset" : 136344
        },
        {
            "buffer" : 0,
            "byteLength" : 768,
            "byteOffset" : 137112
        },
        {
            "buffer" : 0,
            "byteLength" : 512,
            "byteOffset" : 137880
        },
        {
            "buffer" : 0,
            "byteLength" : 564,
            "byteOffset" : 138392
        },
        {
            "buffer" : 0,
            "byteLength" : 7164,
            "byteOffset" : 138956
        },
        {
            "buffer" : 0,
            "byteLength" : 7164,
            "byteOffset" : 146120
        },
        {
            "buffer" : 0,
            "byteLength" : 4776,
            "byteOffset" : 153284
        },
        {
            "buffer" : 0,
            "byteLength" : 3828,
            "byteOffset" : 158060
        },
        {
            "buffer" : 0,
            "byteLength" : 3828,
            "byteOffset" : 161888
        },
        {
            "buffer" : 0,
            "byteLength" : 2552,
            "byteOffset" : 165716
        },
        {
            "buffer" : 0,
            "byteLength" : 2880,
            "byteOffset" : 168268
        },
        {
            "buffer" : 0,
            "byteLength" : 7164,
            "byteOffset" : 171148
        },
        {
            "buffer" : 0,
            "byteLength" : 7164,
            "byteOffset" : 178312
        },
        {
            "buffer" : 0,
            "byteLength" : 4776,
            "byteOffset" : 185476
        },
        {
            "buffer" : 0,
            "byteLength" : 5760,
            "byteOffset" : 190252
        },
        {
            "buffer" : 0,
            "byteLength" : 7164,
            "byteOffset" : 196012
        },
        {
            "buffer" : 0,
            "byteLength" : 7164,
            "byteOffset" : 203176
        },
        {
            "buffer" : 0,
            "byteLength" : 4776,
            "byteOffset" : 210340
        },
        {
            "buffer" : 0,
            "byteLength" : 5760,
            "byteOffset" : 215116
        },
        {
            "buffer" : 0,
            "byteLength" : 7164,
            "byteOffset" : 220876
        },
        {
            "buffer" : 0,
            "byteLength" : 7164,
            "byteOffset" : 228040
        },
        {
            "buffer" : 0,
            "byteLength" : 4776,
            "byteOffset" : 235204
        },
        {
            "buffer" : 0,
            "byteLength" : 5760,
            "byteOffset" : 239980
        },
        {
            "buffer" : 0,
            "byteLength" : 7164,
            "byteOffset" : 245740
        },
        {
            "buffer" : 0,
            "byteLength" : 7164,
            "byteOffset" : 252904
        },
        {
            "buffer" : 0,
            "byteLength" : 4776,
            "byteOffset" : 260068
        }
    ],
    "samplers" : [
        {
            "magFilter" : 9729,
            "minFilter" : 9987
        }
    ],
    "buffers" : [
        {
            "byteLength" : 264844,
            "uri" : "data:application/octet-stream;base64,"
        }
    ]
}
